<?xml version="1.0" encoding="utf-8"?>
<!-- Generator: Adobe Illustrator 23.0.1, SVG Export Plug-In . SVG Version: 6.00 Build 0)  -->
<svg version="1.1" id="Layer_1" xmlns="http://www.w3.org/2000/svg" xmlns:xlink="http://www.w3.org/1999/xlink" x="0px" y="0px"
	 viewBox="0 0 595.3 841.9" style="enable-background:new 0 0 595.3 841.9;" xml:space="preserve">
<style type="text/css">
	.st0{fill:#FF0000;}
	.st1{font-family:'Arial-BoldMT';}
	.st2{font-size:4.1497px;}
	.st3{fill:#D17105;}
	.st4{fill:#009600;}
	.st5{fill:#0000FF;}
	.st6{opacity:0.75;fill:#B9B9B9;enable-background:new    ;}
	.st7{fill:none;stroke:#C8C8C8;stroke-linejoin:bevel;stroke-miterlimit:1;stroke-dasharray:8,3,2,3;}
	.st8{fill:#FFFFFF;}
	.st9{font-family:'ArialMT';}
	.st10{font-size:5.1872px;}
	.st11{fill:none;stroke:#C8C8C8;stroke-linecap:square;stroke-miterlimit:10;}
	.st12{fill:none;stroke:#C8C8D2;stroke-linecap:square;stroke-miterlimit:10;}
	.st13{fill:none;stroke:#0000B2;stroke-linecap:square;stroke-miterlimit:10;}
	.st14{fill:none;stroke:#000000;stroke-linecap:square;stroke-miterlimit:10;}
	.st15{fill:none;}
	.st16{font-family:'LucidaGrande';}
	.st17{font-size:6.7433px;}
</style>
<text transform="matrix(1 0 0 1 341.6094 242.1066)" class="st0 st1 st2">T</text>
<text transform="matrix(1 0 0 1 345.7598 242.1066)" class="st0 st1 st2">T</text>
<text transform="matrix(1 0 0 1 349.3906 242.1066)" class="st3 st1 st2">G</text>
<text transform="matrix(1 0 0 1 353.54 242.1066)" class="st3 st1 st2">G</text>
<text transform="matrix(1 0 0 1 358.209 242.1066)" class="st0 st1 st2">T</text>
<text transform="matrix(1 0 0 1 362.3584 242.1066)" class="st0 st1 st2">T</text>
<text transform="matrix(1 0 0 1 366.5078 242.1066)" class="st0 st1 st2">T</text>
<text transform="matrix(1 0 0 1 370.6582 242.1066)" class="st0 st1 st2">T</text>
<text transform="matrix(1 0 0 1 374.2891 242.1066)" class="st4 st1 st2">A</text>
<text transform="matrix(1 0 0 1 379.4756 242.1066)" class="st0 st1 st2">T</text>
<text transform="matrix(1 0 0 1 383.1074 242.1066)" class="st4 st1 st2">A</text>
<text transform="matrix(1 0 0 1 387.7754 242.1066)" class="st0 st1 st2">T</text>
<text transform="matrix(1 0 0 1 391.4062 242.1066)" class="st5 st1 st2">C</text>
<text transform="matrix(1 0 0 1 395.5566 242.1066)" class="st5 st1 st2">C</text>
<text transform="matrix(1 0 0 1 399.7051 242.1066)" class="st5 st1 st2">C</text>
<text transform="matrix(1 0 0 1 404.374 242.1066)" class="st0 st1 st2">T</text>
<text transform="matrix(1 0 0 1 408.0059 242.1066)" class="st3 st1 st2">G</text>
<text transform="matrix(1 0 0 1 412.1543 242.1066)" class="st3 st1 st2">G</text>
<text transform="matrix(1 0 0 1 416.8232 242.1066)" class="st5 st1 st2">C</text>
<text transform="matrix(1 0 0 1 420.9727 242.1066)" class="st4 st1 st2">A</text>
<text transform="matrix(1 0 0 1 425.123 242.1066)" class="st5 st1 st2">C</text>
<text transform="matrix(1 0 0 1 429.2725 242.1066)" class="st5 st1 st2">C</text>
<text transform="matrix(1 0 0 1 433.9414 242.1066)" class="st0 st1 st2">T</text>
<text transform="matrix(1 0 0 1 437.5723 242.1066)" class="st3 st1 st2">G</text>
<text transform="matrix(1 0 0 1 441.7217 242.1066)" class="st4 st1 st2">A</text>
<text transform="matrix(1 0 0 1 445.8711 242.1066)" class="st3 st1 st2">G</text>
<text transform="matrix(1 0 0 1 450.54 242.1066)" class="st0 st1 st2">T</text>
<text transform="matrix(1 0 0 1 454.6895 242.1066)" class="st4 st1 st2">A</text>
<text transform="matrix(1 0 0 1 458.8398 242.1066)" class="st3 st1 st2">G</text>
<text transform="matrix(1 0 0 1 462.9893 242.1066)" class="st5 st1 st2">C</text>
<text transform="matrix(1 0 0 1 467.6582 242.1066)" class="st0 st1 st2">T</text>
<text transform="matrix(1 0 0 1 471.2891 242.1066)" class="st4 st1 st2">A</text>
<text transform="matrix(1 0 0 1 475.4385 242.1066)" class="st5 st1 st2">C</text>
<text transform="matrix(1 0 0 1 480.1074 242.1066)" class="st0 st1 st2">T</text>
<text transform="matrix(1 0 0 1 483.7383 242.1066)" class="st5 st1 st2">C</text>
<text transform="matrix(1 0 0 1 488.4062 242.1066)" class="st4 st1 st2">A</text>
<text transform="matrix(1 0 0 1 492.5566 242.1066)" class="st3 st1 st2">G</text>
<text transform="matrix(1 0 0 1 497.2246 242.1066)" class="st0 st1 st2">T</text>
<text transform="matrix(1 0 0 1 500.8555 242.1066)" class="st4 st1 st2">A</text>
<text transform="matrix(1 0 0 1 505.0059 242.1066)" class="st3 st1 st2">G</text>
<text transform="matrix(1 0 0 1 509.6738 242.1066)" class="st0 st1 st2">T</text>
<text transform="matrix(1 0 0 1 513.3047 242.1066)" class="st4 st1 st2">A</text>
<text transform="matrix(1 0 0 1 517.4551 242.1066)" class="st3 st1 st2">G</text>
<text transform="matrix(1 0 0 1 522.123 242.1066)" class="st0 st1 st2">T</text>
<text transform="matrix(1 0 0 1 526.791 242.1066)" class="st0 st1 st2">T</text>
<text transform="matrix(1 0 0 1 530.4219 242.1066)" class="st4 st1 st2">A</text>
<text transform="matrix(1 0 0 1 534.5723 242.1066)" class="st3 st1 st2">G</text>
<text transform="matrix(1 0 0 1 538.7217 242.1066)" class="st4 st1 st2">A</text>
<text transform="matrix(1 0 0 1 543.3906 242.1066)" class="st0 st1 st2">T</text>
<text transform="matrix(1 0 0 1 547.0215 242.1066)" class="st4 st1 st2">A</text>
<text transform="matrix(1 0 0 1 551.1709 242.1066)" class="st5 st1 st2">C</text>
<text transform="matrix(1 0 0 1 555.3203 242.1066)" class="st5 st1 st2">C</text>
<text transform="matrix(1 0 0 1 559.9893 242.1066)" class="st0 st1 st2">T</text>
<text transform="matrix(1 0 0 1 564.1387 242.1066)" class="st3 st1 st2">G</text>
<text transform="matrix(1 0 0 1 568.8066 242.1066)" class="st0 st1 st2">T</text>
<text transform="matrix(1 0 0 1 572.957 242.1066)" class="st0 st1 st2">T</text>
<text transform="matrix(1 0 0 1 576.5879 242.1066)" class="st4 st1 st2">A</text>
<text transform="matrix(1 0 0 1 581.2559 242.1066)" class="st0 st1 st2">T</text>
<polygon class="st6" points="470.8,269.6 470.8,266.5 588,266.5 588,269.6 588,272.7 470.8,272.7 "/>
<polygon class="st6" points="470.8,276.9 470.8,273.7 588,273.7 588,276.9 588,280 470.8,280 "/>
<polygon class="st6" points="470.8,284.1 470.8,281 588,281 588,284.1 588,287.2 470.8,287.2 "/>
<polygon class="st6" points="470.8,291.4 470.8,288.3 588,288.3 588,291.4 588,294.5 470.8,294.5 "/>
<polygon class="st6" points="516.9,298.6 516.9,295.5 587.5,295.5 587.5,298.6 587.5,301.8 516.9,301.8 "/>
<line class="st7" x1="340.6" y1="303.8" x2="583.3" y2="303.8"/>
<rect x="340.6" y="266.5" class="st8" width="7.8" height="5.7"/>
<text transform="matrix(1 0 0 1 343.166 271.1549)" class="st9 st10">+</text>
<polygon class="st6" points="340.6,308.5 340.6,305.4 453.7,305.4 453.7,308.5 453.7,311.6 340.6,311.6 "/>
<polygon class="st6" points="340.6,315.8 340.6,312.7 453.7,312.7 453.7,315.8 453.7,318.9 340.6,318.9 "/>
<polygon class="st6" points="340.6,323 340.6,319.9 453.7,319.9 453.7,323 453.7,326.1 340.6,326.1 "/>
<rect x="340.6" y="305.4" class="st8" width="6.7" height="5.7"/>
<text transform="matrix(1 0 0 1 343.166 310.0587)" class="st9 st10">-</text>
<line class="st11" x1="340.6" y1="350" x2="583.3" y2="350"/>
<line class="st12" x1="340.6" y1="349" x2="583.3" y2="349"/>
<line class="st13" x1="-372624" y1="440" x2="-173312" y2="440"/>
<line class="st13" x1="-172566" y1="440" x2="-146153" y2="440"/>
<line class="st13" x1="57857" y1="440" x2="120548" y2="440"/>
<line class="st13" x1="121425" y1="440" x2="152486" y2="440"/>
<line class="st13" x1="152819" y1="440" x2="205562" y2="440"/>
<line class="st13" x1="-372624" y1="452" x2="-284405" y2="452"/>
<line class="st13" x1="-284113" y1="452" x2="-173312" y2="452"/>
<line class="st13" x1="-172566" y1="452" x2="-146153" y2="452"/>
<line class="st13" x1="57857" y1="452" x2="120548" y2="452"/>
<line class="st13" x1="121425" y1="452" x2="205562" y2="452"/>
<line class="st13" x1="-372624" y1="464" x2="-173312" y2="464"/>
<line class="st13" x1="-172566" y1="464" x2="-146153" y2="464"/>
<line class="st13" x1="121425" y1="464" x2="205562" y2="464"/>
<line class="st13" x1="-372624" y1="476" x2="-173312" y2="476"/>
<line class="st13" x1="-172566" y1="476" x2="-146153" y2="476"/>
<line class="st13" x1="57857" y1="476" x2="205562" y2="476"/>
<line class="st13" x1="-372624" y1="488" x2="-173312" y2="488"/>
<line class="st13" x1="-172566" y1="488" x2="-146153" y2="488"/>
<line class="st13" x1="57857" y1="488" x2="120548" y2="488"/>
<line class="st13" x1="121425" y1="488" x2="205562" y2="488"/>
<line class="st13" x1="57857" y1="500" x2="120548" y2="500"/>
<line class="st13" x1="121425" y1="500" x2="205562" y2="500"/>
<line class="st12" x1="651" y1="877" x2="1119" y2="877"/>
<line class="st14" x1="-378786400" y1="131" x2="-378786400" y2="917"/>
<line class="st14" x1="-378784608" y1="131" x2="-378784608" y2="917"/>
<line class="st14" x1="1584" y1="131" x2="1584" y2="917"/>
<text transform="matrix(1 0 0 1 94.7002 242.1066)" class="st0 st1 st2">T</text>
<text transform="matrix(1 0 0 1 98.8501 242.1066)" class="st0 st1 st2">T</text>
<text transform="matrix(1 0 0 1 103 242.1066)" class="st0 st1 st2">T</text>
<text transform="matrix(1 0 0 1 106.6309 242.1066)" class="st5 st1 st2">C</text>
<text transform="matrix(1 0 0 1 111.2993 242.1066)" class="st0 st1 st2">T</text>
<text transform="matrix(1 0 0 1 115.4492 242.1066)" class="st0 st1 st2">T</text>
<text transform="matrix(1 0 0 1 119.0801 242.1066)" class="st5 st1 st2">C</text>
<text transform="matrix(1 0 0 1 123.7485 242.1066)" class="st0 st1 st2">T</text>
<text transform="matrix(1 0 0 1 127.8984 242.1066)" class="st0 st1 st2">T</text>
<text transform="matrix(1 0 0 1 132.0479 242.1066)" class="st5 st1 st2">C</text>
<text transform="matrix(1 0 0 1 136.1978 242.1066)" class="st4 st1 st2">A</text>
<text transform="matrix(1 0 0 1 140.8662 242.1066)" class="st0 st1 st2">T</text>
<text transform="matrix(1 0 0 1 144.4971 242.1066)" class="st5 st1 st2">C</text>
<text transform="matrix(1 0 0 1 149.1655 242.1066)" class="st0 st1 st2">T</text>
<text transform="matrix(1 0 0 1 152.7969 242.1066)" class="st3 st1 st2">G</text>
<text transform="matrix(1 0 0 1 157.4648 242.1066)" class="st0 st1 st2">T</text>
<text transform="matrix(1 0 0 1 161.0962 242.1066)" class="st5 st1 st2">C</text>
<text transform="matrix(1 0 0 1 165.2461 242.1066)" class="st5 st1 st2">C</text>
<text transform="matrix(1 0 0 1 169.9141 242.1066)" class="st4 st1 st2">A</text>
<text transform="matrix(1 0 0 1 174.583 242.1066)" class="st0 st1 st2">T</text>
<text transform="matrix(1 0 0 1 178.7324 242.1066)" class="st0 st1 st2">T</text>
<text transform="matrix(1 0 0 1 182.3633 242.1066)" class="st3 st1 st2">G</text>
<text transform="matrix(1 0 0 1 186.5132 242.1066)" class="st4 st1 st2">A</text>
<text transform="matrix(1 0 0 1 190.6631 242.1066)" class="st5 st1 st2">C</text>
<text transform="matrix(1 0 0 1 194.8125 242.1066)" class="st5 st1 st2">C</text>
<text transform="matrix(1 0 0 1 198.9624 242.1066)" class="st5 st1 st2">C</text>
<text transform="matrix(1 0 0 1 203.1123 242.1066)" class="st4 st1 st2">A</text>
<text transform="matrix(1 0 0 1 207.7803 242.1066)" class="st5 st1 st2">C</text>
<text transform="matrix(1 0 0 1 212.4492 242.1066)" class="st0 st1 st2">T</text>
<text transform="matrix(1 0 0 1 216.0801 242.1066)" class="st3 st1 st2">G</text>
<text transform="matrix(1 0 0 1 220.2295 242.1066)" class="st3 st1 st2">G</text>
<text transform="matrix(1 0 0 1 224.8984 242.1066)" class="st0 st1 st2">T</text>
<text transform="matrix(1 0 0 1 228.5293 242.1066)" class="st5 st1 st2">C</text>
<text transform="matrix(1 0 0 1 232.6787 242.1066)" class="st4 st1 st2">A</text>
<text transform="matrix(1 0 0 1 237.3477 242.1066)" class="st0 st1 st2">T</text>
<text transform="matrix(1 0 0 1 242.0156 242.1066)" class="st0 st1 st2">T</text>
<text transform="matrix(1 0 0 1 245.647 242.1066)" class="st5 st1 st2">C</text>
<text transform="matrix(1 0 0 1 249.7969 242.1066)" class="st4 st1 st2">A</text>
<text transform="matrix(1 0 0 1 253.9463 242.1066)" class="st3 st1 st2">G</text>
<text transform="matrix(1 0 0 1 258.0962 242.1066)" class="st3 st1 st2">G</text>
<text transform="matrix(1 0 0 1 262.2461 242.1066)" class="st4 st1 st2">A</text>
<text transform="matrix(1 0 0 1 266.3955 242.1066)" class="st3 st1 st2">G</text>
<text transform="matrix(1 0 0 1 271.064 242.1066)" class="st0 st1 st2">T</text>
<text transform="matrix(1 0 0 1 274.6953 242.1066)" class="st3 st1 st2">G</text>
<text transform="matrix(1 0 0 1 279.8823 242.1066)" class="st0 st1 st2">T</text>
<text transform="matrix(1 0 0 1 283.5132 242.1066)" class="st4 st1 st2">A</text>
<text transform="matrix(1 0 0 1 288.1816 242.1066)" class="st0 st1 st2">T</text>
<text transform="matrix(1 0 0 1 292.3315 242.1066)" class="st0 st1 st2">T</text>
<text transform="matrix(1 0 0 1 295.9624 242.1066)" class="st3 st1 st2">G</text>
<text transform="matrix(1 0 0 1 300.1123 242.1066)" class="st3 st1 st2">G</text>
<text transform="matrix(1 0 0 1 304.7812 242.1066)" class="st0 st1 st2">T</text>
<text transform="matrix(1 0 0 1 308.9297 242.1066)" class="st0 st1 st2">T</text>
<text transform="matrix(1 0 0 1 312.5615 242.1066)" class="st4 st1 st2">A</text>
<text transform="matrix(1 0 0 1 317.2305 242.1066)" class="st4 st1 st2">A</text>
<text transform="matrix(1 0 0 1 321.8984 242.1066)" class="st0 st1 st2">T</text>
<text transform="matrix(1 0 0 1 326.0479 242.1066)" class="st0 st1 st2">T</text>
<text transform="matrix(1 0 0 1 330.1973 242.1066)" class="st0 st1 st2">T</text>
<text transform="matrix(1 0 0 1 334.3477 242.1066)" class="st0 st1 st2">T</text>
<polygon class="st6" points="215.6,269.6 215.6,266.5 341.1,266.5 341.1,269.6 341.1,272.7 215.6,272.7 "/>
<polygon class="st6" points="215.6,276.9 215.6,273.7 341.1,273.7 341.1,276.9 341.1,280 215.6,280 "/>
<polygon class="st6" points="215.6,284.1 215.6,281 341.1,281 341.1,284.1 341.1,287.2 215.6,287.2 "/>
<polygon class="st6" points="215.6,291.4 215.6,288.3 341.1,288.3 341.1,291.4 341.1,294.5 215.6,294.5 "/>
<line class="st7" x1="93.7" y1="296.6" x2="335.9" y2="296.6"/>
<rect x="93.7" y="266.5" class="st8" width="7.8" height="5.7"/>
<text transform="matrix(1 0 0 1 96.2568 271.1549)" class="st9 st10">+</text>
<polygon class="st6" points="93.7,301.2 93.7,298.1 197.9,298.1 197.9,301.2 197.9,304.4 93.7,304.4 "/>
<polygon class="st6" points="93.7,308.5 93.7,305.4 197.9,305.4 197.9,308.5 197.9,311.6 93.7,311.6 "/>
<polygon class="st6" points="93.7,315.8 93.7,312.7 197.9,312.7 197.9,315.8 197.9,318.9 93.7,318.9 "/>
<polygon class="st6" points="93.7,323 93.7,319.9 215,319.9 215,323 215,326.1 93.7,326.1 "/>
<rect x="93.7" y="298.1" class="st8" width="6.7" height="5.7"/>
<text transform="matrix(1 0 0 1 96.2568 302.797)" class="st9 st10">-</text>
<line class="st11" x1="93.7" y1="350" x2="335.9" y2="350"/>
<line class="st12" x1="93.7" y1="349" x2="335.9" y2="349"/>
<line class="st13" x1="-96572" y1="440" x2="-92629" y2="440"/>
<line class="st13" x1="45786" y1="440" x2="63231" y2="440"/>
<line class="st13" x1="63767" y1="440" x2="70194" y2="440"/>
<line class="st13" x1="70753" y1="440" x2="91153" y2="440"/>
<line class="st13" x1="92054" y1="440" x2="105556" y2="440"/>
<line class="st13" x1="106521" y1="440" x2="124925" y2="440"/>
<line class="st13" x1="125736" y1="440" x2="181741" y2="440"/>
<line class="st13" x1="182447" y1="440" x2="211643" y2="440"/>
<line class="st13" x1="212860" y1="440" x2="241268" y2="440"/>
<line class="st13" x1="242469" y1="440" x2="245845" y2="440"/>
<line class="st13" x1="-95485" y1="452" x2="-92629" y2="452"/>
<line class="st13" x1="45786" y1="452" x2="63231" y2="452"/>
<line class="st13" x1="63783" y1="452" x2="70194" y2="452"/>
<line class="st13" x1="70753" y1="452" x2="91153" y2="452"/>
<line class="st13" x1="92054" y1="452" x2="124925" y2="452"/>
<line class="st13" x1="125736" y1="452" x2="181741" y2="452"/>
<line class="st13" x1="182447" y1="452" x2="211643" y2="452"/>
<line class="st13" x1="212860" y1="452" x2="241268" y2="452"/>
<line class="st13" x1="242469" y1="452" x2="245845" y2="452"/>
<line class="st13" x1="-95485" y1="464" x2="-92629" y2="464"/>
<line class="st13" x1="63767" y1="464" x2="70194" y2="464"/>
<line class="st13" x1="70753" y1="464" x2="91153" y2="464"/>
<line class="st13" x1="92054" y1="464" x2="105556" y2="464"/>
<line class="st13" x1="106521" y1="464" x2="124925" y2="464"/>
<line class="st13" x1="125736" y1="464" x2="181741" y2="464"/>
<line class="st13" x1="182447" y1="464" x2="211643" y2="464"/>
<line class="st13" x1="212860" y1="464" x2="241268" y2="464"/>
<line class="st13" x1="242469" y1="464" x2="245845" y2="464"/>
<line class="st13" x1="-95485" y1="476" x2="-92629" y2="476"/>
<line class="st13" x1="45786" y1="476" x2="63231" y2="476"/>
<line class="st13" x1="63767" y1="476" x2="70194" y2="476"/>
<line class="st13" x1="70753" y1="476" x2="91153" y2="476"/>
<line class="st13" x1="92054" y1="476" x2="105556" y2="476"/>
<line class="st13" x1="106521" y1="476" x2="124925" y2="476"/>
<line class="st13" x1="125736" y1="476" x2="181741" y2="476"/>
<line class="st13" x1="182447" y1="476" x2="211643" y2="476"/>
<line class="st13" x1="212860" y1="476" x2="241268" y2="476"/>
<line class="st13" x1="242469" y1="476" x2="245845" y2="476"/>
<line class="st13" x1="-96572" y1="488" x2="-92629" y2="488"/>
<line class="st13" x1="45786" y1="488" x2="63231" y2="488"/>
<line class="st13" x1="63783" y1="488" x2="70194" y2="488"/>
<line class="st13" x1="70753" y1="488" x2="91153" y2="488"/>
<line class="st13" x1="92054" y1="488" x2="105556" y2="488"/>
<line class="st13" x1="106521" y1="488" x2="124925" y2="488"/>
<line class="st13" x1="125736" y1="488" x2="181741" y2="488"/>
<line class="st13" x1="182447" y1="488" x2="211643" y2="488"/>
<line class="st13" x1="212860" y1="488" x2="241268" y2="488"/>
<line class="st13" x1="242469" y1="488" x2="245845" y2="488"/>
<line class="st13" x1="-95485" y1="500" x2="-92629" y2="500"/>
<line class="st13" x1="63783" y1="500" x2="70194" y2="500"/>
<line class="st13" x1="70753" y1="500" x2="91153" y2="500"/>
<line class="st13" x1="92054" y1="500" x2="105556" y2="500"/>
<line class="st13" x1="106521" y1="500" x2="124925" y2="500"/>
<line class="st13" x1="125736" y1="500" x2="181741" y2="500"/>
<line class="st13" x1="182447" y1="500" x2="211643" y2="500"/>
<line class="st13" x1="212860" y1="500" x2="241268" y2="500"/>
<line class="st13" x1="242469" y1="500" x2="245845" y2="500"/>
<line class="st13" x1="-95485" y1="512" x2="-92629" y2="512"/>
<line class="st13" x1="45786" y1="512" x2="63231" y2="512"/>
<line class="st13" x1="63783" y1="512" x2="70194" y2="512"/>
<line class="st13" x1="70753" y1="512" x2="91153" y2="512"/>
<line class="st13" x1="92054" y1="512" x2="105556" y2="512"/>
<line class="st13" x1="106521" y1="512" x2="124925" y2="512"/>
<line class="st13" x1="125736" y1="512" x2="181741" y2="512"/>
<line class="st13" x1="182447" y1="512" x2="211643" y2="512"/>
<line class="st13" x1="212860" y1="512" x2="241268" y2="512"/>
<line class="st13" x1="242469" y1="512" x2="245845" y2="512"/>
<line class="st13" x1="-95485" y1="524" x2="-92629" y2="524"/>
<line class="st13" x1="92054" y1="524" x2="105556" y2="524"/>
<line class="st13" x1="106521" y1="524" x2="124925" y2="524"/>
<line class="st13" x1="125736" y1="524" x2="181741" y2="524"/>
<line class="st13" x1="182447" y1="524" x2="211643" y2="524"/>
<line class="st13" x1="212860" y1="524" x2="241268" y2="524"/>
<line class="st13" x1="242469" y1="524" x2="245845" y2="524"/>
<line class="st13" x1="-95485" y1="536" x2="-92629" y2="536"/>
<line class="st13" x1="32640" y1="536" x2="45510" y2="536"/>
<line class="st13" x1="45786" y1="536" x2="63231" y2="536"/>
<line class="st13" x1="63783" y1="536" x2="70194" y2="536"/>
<line class="st13" x1="70753" y1="536" x2="91153" y2="536"/>
<line class="st13" x1="92054" y1="536" x2="105556" y2="536"/>
<line class="st13" x1="106521" y1="536" x2="124925" y2="536"/>
<line class="st13" x1="125736" y1="536" x2="181741" y2="536"/>
<line class="st13" x1="182447" y1="536" x2="211643" y2="536"/>
<line class="st13" x1="212860" y1="536" x2="241268" y2="536"/>
<line class="st13" x1="242469" y1="536" x2="245845" y2="536"/>
<line class="st13" x1="-95485" y1="548" x2="-92629" y2="548"/>
<line class="st13" x1="45786" y1="548" x2="91153" y2="548"/>
<line class="st13" x1="92054" y1="548" x2="105556" y2="548"/>
<line class="st13" x1="106521" y1="548" x2="124925" y2="548"/>
<line class="st13" x1="125736" y1="548" x2="181741" y2="548"/>
<line class="st13" x1="182447" y1="548" x2="211643" y2="548"/>
<line class="st13" x1="212860" y1="548" x2="241268" y2="548"/>
<line class="st13" x1="242469" y1="548" x2="245845" y2="548"/>
<line class="st12" x1="175" y1="877" x2="642" y2="877"/>
<line class="st14" x1="-547" y1="131" x2="-547" y2="917"/>
<line class="st14" x1="378786080" y1="131" x2="378786080" y2="917"/>
<line class="st14" x1="378787392" y1="131" x2="378787392" y2="917"/>
<rect x="341.1" y="193.3" class="st15" width="239.6" height="41.5"/>
<text transform="matrix(1 0 0 1 344.2031 232.5831)" class="st5 st16 st17">chr5:115223757-115223920</text>
<rect x="94.2" y="193.3" class="st15" width="241.2" height="41.5"/>
<text transform="matrix(1 0 0 1 93.6631 232.5831)" class="st5 st16 st17">chr5:68542569-68542789</text>
</svg>
